<?xml version="1.0" standalone="no"?>
<!DOCTYPE svg PUBLIC "-//W3C//DTD SVG 20010904//EN"
 "http://www.w3.org/TR/2001/REC-SVG-20010904/DTD/svg10.dtd">
<svg version="1.0" xmlns="http://www.w3.org/2000/svg"
 width="512.000000pt" height="512.000000pt" viewBox="0 0 512.000000 512.000000"
 preserveAspectRatio="xMidYMid meet">
<metadata>
Created by potrace 1.14, written by Peter Selinger 2001-2017
</metadata>
<g transform="translate(0.000000,512.000000) scale(0.100000,-0.100000)"
fill="#000000" stroke="none">
<path d="M0 2560 l0 -2560 2560 0 2560 0 0 2560 0 2560 -2560 0 -2560 0 0
-2560z m1977 1418 c22 -21 23 -28 23 -170 0 -81 3 -148 7 -148 4 0 76 69 160
152 l153 153 0 -445 0 -445 -153 153 c-84 83 -156 152 -160 152 -4 0 -7 -66
-7 -147 0 -137 -1 -148 -22 -170 l-21 -23 -516 0 -515 0 -23 22 -23 21 0 436
c0 433 0 435 22 458 l21 23 516 0 515 0 23 -22z m587 -1425 c-353 -357 -646
-644 -650 -640 -7 7 1270 1285 1286 1287 3 0 -284 -291 -636 -647z m1768 -258
c15 -11 36 -36 47 -56 20 -36 21 -49 21 -559 l0 -522 -22 -40 c-39 -68 -54
-72 -308 -78 l-225 -5 -3 -77 -3 -78 -319 0 -319 0 -3 78 -3 77 -230 5 c-257
6 -263 7 -303 79 -22 38 -22 42 -22 561 l0 523 25 42 c46 79 -6 75 865 72 757
-2 776 -2 802 -22z"/>
<path d="M2800 1680 l0 -480 720 0 720 0 0 480 0 480 -720 0 -720 0 0 -480z"/>
</g>
</svg>
